<?xml version="1.0" encoding="UTF-8" standalone="no"?>
<!-- Created with Inkscape (http://www.inkscape.org/) -->

<svg
   width="135.46667mm"
   height="135.46667mm"
   viewBox="0 0 135.46667 135.46667"
   version="1.1"
   id="svg1"
   xml:space="preserve"
   xmlns="http://www.w3.org/2000/svg"
   xmlns:svg="http://www.w3.org/2000/svg"><defs
     id="defs1" /><g
     id="layer1"
     transform="translate(-53.474182,-78.65329)"><path
       style="fill:#ffffff;stroke-width:0.499999"
       id="path2"
       d="m 183.89703,146.38725 a 62.689507,62.325817 0 0 1 -62.68998,62.32519 62.689507,62.325817 0 0 1 -62.689037,-62.32612 62.689507,62.325817 0 0 1 62.689667,-62.32551 62.689507,62.325817 0 0 1 62.68935,62.32582" /><path
       style="fill:#808080;stroke:none;stroke-width:0.999999"
       d="m 117.71521,83.485007 c -4.6981,0.61687 -9.26,0.992276 -13.87228,2.254802 -10.72679,2.936274 -20.981338,9.06 -28.566447,17.203271 -22.873215,24.5564 -22.91338,64.11614 1.035202,88.06473 8.020854,8.02085 17.953725,13.37883 28.792375,16.45856 7.59108,2.15695 15.95583,2.53054 23.75098,1.56065 30.77698,-3.82931 53.9261,-29.97944 55.27058,-60.68384 1.31481,-30.02715 -20.88709,-57.775488 -50.22612,-63.644255 -5.13618,-1.027401 -10.94803,-1.901447 -16.18429,-1.213918 m 40.56583,60.046133 h -8.82779 v 29.79454 10.29909 c 0,1.18605 0.40276,3.27083 -0.12673,4.3471 -0.40901,0.83117 -2.26834,0.48719 -3.02598,0.48719 h -9.45835 c -0.8115,0 -3.0133,0.39283 -3.44634,-0.48719 -0.95355,-1.93788 -0.12675,-6.17542 -0.12675,-8.34061 v -21.01858 h -18.07597 c -1.35018,0 -5.18514,-0.6566 -6.17875,0.33701 -0.5099,0.50989 -0.33698,1.53347 -0.33701,2.1852 v 5.46484 21.85933 H 97.327175 L 93.0401,188.24303 92.703089,184.8859 v -9.45837 -31.89639 h -9.037991 c 2.28027,-3.23709 5.521767,-5.86244 8.137242,-8.82781 0.848558,-0.96207 2.405778,-2.08729 2.725605,-3.36296 0.397137,-1.58407 0.0668,-3.62401 0.0668,-5.25466 v -11.13984 c 0,-1.3474 -0.63406,-4.89523 0.216023,-5.96856 0.642057,-0.81066 3.456767,-0.33701 4.408067,-0.33701 1.069335,0 3.630895,-0.47015 4.497255,0.21603 0.67322,0.53321 0.33701,2.38346 0.33701,3.14695 v 9.45835 c 4.34705,-4.34699 8.32384,-9.05201 12.61423,-13.45189 0.9239,-0.94747 3.00439,-4.16024 4.41082,-4.16024 1.00692,0 1.96083,1.60866 2.55793,2.26858 l 34.64495,37.41306 z"
       id="path1" /></g></svg>
