<?xml version="1.0" encoding="UTF-8" standalone="no"?>
<!-- Created with Inkscape (http://www.inkscape.org/) -->

<svg
   width="512"
   height="512"
   viewBox="0 0 135.46667 135.46667"
   version="1.1"
   id="svg1"
   xml:space="preserve"
   inkscape:version="1.3.1 (91b66b0783, 2023-11-16)"
   sodipodi:docname="x.svg"
   xmlns:inkscape="http://www.inkscape.org/namespaces/inkscape"
   xmlns:sodipodi="http://sodipodi.sourceforge.net/DTD/sodipodi-0.dtd"
   xmlns="http://www.w3.org/2000/svg"
   xmlns:svg="http://www.w3.org/2000/svg"><sodipodi:namedview
     id="namedview1"
     pagecolor="#505050"
     bordercolor="#ffffff"
     borderopacity="1"
     inkscape:showpageshadow="0"
     inkscape:pageopacity="0"
     inkscape:pagecheckerboard="1"
     inkscape:deskcolor="#d1d1d1"
     inkscape:document-units="mm"
     inkscape:zoom="0.71624579"
     inkscape:cx="396.51193"
     inkscape:cy="337.87284"
     inkscape:window-width="1920"
     inkscape:window-height="1037"
     inkscape:window-x="0"
     inkscape:window-y="0"
     inkscape:window-maximized="1"
     inkscape:current-layer="layer1" /><defs
     id="defs1" /><g
     inkscape:label="Capa 1"
     inkscape:groupmode="layer"
     id="layer1"><path
       style="fill:#000000"
       d="m 8.3167357,123.57356 c 0.0855,-0.13832 9.9850703,-11.47903 21.9990703,-25.201573 12.014,-13.72254 21.90058,-25.08596 21.97017,-25.25205 0.0696,-0.16609 -10.35875,-14.00515 -23.17408,-30.753479 C 16.296556,25.618128 5.8112857,11.853471 5.8112857,11.778332 c 0,-0.07514 8.7808603,-0.13601 19.5130203,-0.135269 l 19.51302,0.0013 13.49375,17.854955 c 7.421561,9.82022 13.554431,17.856329 13.628601,17.858019 0.0742,0.002 7.15839,-8.031439 15.74271,-17.851419 l 15.607843,-17.854451 9.48238,-0.0049 9.48237,-0.0049 -0.65865,0.782759 c -0.36225,0.430517 -9.66806,11.079312 -20.67956,23.663982 -11.011493,12.584669 -20.010463,22.977819 -19.997693,23.095879 0.0128,0.11807 7.49229,10.0953 16.62115,22.17163 9.128853,12.07632 20.084803,26.572183 24.346533,32.213023 l 7.74862,10.25606 -19.1257,-0.002 -19.125693,-0.002 -14.94896,-19.57578 c -8.22192,-10.766683 -15.00848,-19.571423 -15.08124,-19.566093 -0.0728,0.005 -7.811831,8.81035 -17.197921,19.566723 l -17.06562,19.55703 -9.47447,0.0111 c -5.92301,0.007 -9.4162103,-0.0832 -9.3190403,-0.24042 z M 106.56052,111.58807 C 106.20359,111.11512 96.233787,97.928947 84.405407,82.285457 72.577017,66.641967 57.585166,46.794477 51.090166,38.179908 l -11.80909,-15.662844 -5.6224,-0.01372 c -3.09231,-0.0075 -5.62239,0.04925 -5.62239,0.126208 0,0.07696 10.4523,13.798912 23.22733,30.493235 12.775041,16.69431 28.206191,36.87197 34.291461,44.83924 l 11.06412,14.485933 h 5.295143 5.29516 z"
       id="path1" /></g></svg>
