<?xml version="1.0" encoding="UTF-8" standalone="no"?>
<!-- Created with Inkscape (http://www.inkscape.org/) -->

<svg
   width="42.333332mm"
   height="16.933332mm"
   viewBox="0 0 42.333331 16.933332"
   version="1.1"
   id="svg5"
   xml:space="preserve"
   inkscape:version="1.3.1 (91b66b0783, 2023-11-16)"
   sodipodi:docname="logo.svg"
   inkscape:export-filename="logo.png"
   inkscape:export-xdpi="96"
   inkscape:export-ydpi="96"
   xmlns:inkscape="http://www.inkscape.org/namespaces/inkscape"
   xmlns:sodipodi="http://sodipodi.sourceforge.net/DTD/sodipodi-0.dtd"
   xmlns="http://www.w3.org/2000/svg"
   xmlns:svg="http://www.w3.org/2000/svg"><sodipodi:namedview
     id="namedview7"
     pagecolor="#505050"
     bordercolor="#ffffff"
     borderopacity="1"
     inkscape:showpageshadow="0"
     inkscape:pageopacity="0"
     inkscape:pagecheckerboard="1"
     inkscape:deskcolor="#505050"
     inkscape:document-units="mm"
     showgrid="false"
     inkscape:zoom="6.1860829"
     inkscape:cx="74.441291"
     inkscape:cy="59.973331"
     inkscape:window-width="1920"
     inkscape:window-height="1037"
     inkscape:window-x="0"
     inkscape:window-y="0"
     inkscape:window-maximized="1"
     inkscape:current-layer="layer1" /><defs
     id="defs2" /><g
     inkscape:label="Capa 1"
     inkscape:groupmode="layer"
     id="layer1"
     transform="translate(-18.226499,-20.967553)"><path
       d="m 24.086134,33.904648 h 5.003799 v -1.4097 h -3.3528 v -7.5438 h -1.650999 z m 9.424469,-9.1694 c -2.5908,-0.0127 -4.7117,2.1082 -4.7117,4.6736 0,2.5654 2.1209,4.699 4.6863,4.699 2.5654,0 4.6736,-2.1717 4.6609,-4.7371 -0.0127,-2.54 -2.0574,-4.6228 -4.6355,-4.6355 z m -3.0734,4.7498 c -0.0381,-1.8161 1.27,-3.4798 3.1496,-3.4417 1.8161,0.0254 2.9591,1.6891 2.921,3.429 -0.0381,1.7272 -1.1684,3.2766 -3.0226,3.2766 -1.7526,0 -3.0099,-1.5367 -3.048,-3.2639 z m 13.844047,-0.1143 v 3.0988 c -0.4953,0.2159 -1.0287,0.2794 -1.4097,0.2667 -1.8669,-0.0889 -2.8956,-1.5748 -2.9083,-3.2639 -0.0127,-1.7018 1.2192,-3.4163 3.0988,-3.3782 0.5715,0 1.6256,0.2667 2.1082,0.6096 l 0.635,-1.2319 c -0.7366,-0.4445 -2.0066,-0.7239 -2.8575,-0.7239 -2.7305,0.0127 -4.6355,2.032 -4.6482,4.6482 -0.0127,3.2766 2.1209,4.7371 4.6863,4.7371 1.143,0 2.6416,-0.5461 2.8829,-0.6858 v -4.0767 z m 6.414552,-4.6355 c -2.5908,-0.0127 -4.7117,2.1082 -4.7117,4.6736 0,2.5654 2.1209,4.699 4.6863,4.699 2.5654,0 4.6736,-2.1717 4.6609,-4.7371 -0.0127,-2.54 -2.0574,-4.6228 -4.6355,-4.6355 z m -3.0734,4.7498 c -0.0381,-1.8161 1.27,-3.4798 3.1496,-3.4417 1.8161,0.0254 2.9591,1.6891 2.921,3.429 -0.0381,1.7272 -1.1684,3.2766 -3.0226,3.2766 -1.7526,0 -3.0099,-1.5367 -3.048,-3.2639 z"
       id="text1"
       style="font-size:12.7px;line-height:0.8;font-family:'Symphony CG';-inkscape-font-specification:'Symphony CG';letter-spacing:-0.926042px;fill:#1a1a1a;stroke-width:1.163;stroke-linecap:round"
       aria-label="LOGO" /></g></svg>
