<?xml version="1.0" encoding="UTF-8" standalone="no"?>
<!-- Created with Inkscape (http://www.inkscape.org/) -->

<svg
   width="39.158283mm"
   height="39.158283mm"
   viewBox="0 0 39.158283 39.158283"
   version="1.1"
   id="svg1"
   xmlns="http://www.w3.org/2000/svg"
   xmlns:svg="http://www.w3.org/2000/svg">
  <defs
     id="defs1" />
  <g
     id="layer1"
     transform="translate(-104.91,-148.5)">
    <g
       transform="matrix(0.264583,0,0,0.264583,104.91,148.5)"
       id="g2">
      <rect
         x="0"
         y="0"
         width="148"
         height="148"
         style="fill:#ffffff;stroke:none"
         id="rect1" />
      <g
         style="fill:#000000;stroke:none"
         id="g1">
        <path
           d="m 127.6,132 h -3.2 c -0.221,0 -0.4,-0.179 -0.4,-0.4 V 124 h 4 v 7.6 c 0,0.221 -0.179,0.4 -0.4,0.4 z m -16,0 h -7.2 c -0.221,0 -0.4,-0.179 -0.4,-0.4 V 128 h 3.6 c 0.221,0 0.4,-0.179 0.4,-0.4 v -11.2 c 0,-0.221 -0.179,-0.4 -0.4,-0.4 h -3.2 c -0.221,0 -0.4,0.179 -0.4,0.4 V 128 h -3.6 c -0.221,0 -0.4,0.179 -0.4,0.4 v 3.2 c 0,0.221 -0.1791,0.4 -0.4,0.4 H 88.4 c -0.2209,0 -0.4,-0.179 -0.4,-0.4 v -11.2 c 0,-0.221 0.1791,-0.4 0.4,-0.4 h 3.2 c 0.2209,0 0.4,-0.179 0.4,-0.4 v -3.2 c 0,-0.221 0.1791,-0.4 0.4,-0.4 h 3.2 c 0.2209,0 0.4,-0.179 0.4,-0.4 v -3.2 C 96,112.179 95.8209,112 95.6,112 H 88 v -4 h 3.6 c 0.2209,0 0.4,-0.179 0.4,-0.4 V 104 h 3.6 c 0.2209,0 0.4,-0.179 0.4,-0.4 V 96.4 C 96,96.1791 96.1791,96 96.4,96 h 3.2 c 0.2209,0 0.4,-0.1791 0.4,-0.4 V 92 h 3.6 c 0.221,0 0.4,0.1791 0.4,0.4 v 3.2 c 0,0.2209 0.179,0.4 0.4,0.4 h 3.2 c 0.221,0 0.4,-0.1791 0.4,-0.4 V 84.4 c 0,-0.2209 0.179,-0.4 0.4,-0.4 h 3.6 v 3.6 c 0,0.2209 0.179,0.4 0.4,0.4 h 3.6 v 3.6 c 0,0.2209 -0.179,0.4 -0.4,0.4 h -3.2 c -0.221,0 -0.4,0.1791 -0.4,0.4 v 3.2 c 0,0.2209 0.179,0.4 0.4,0.4 h 7.2 c 0.221,0 0.4,-0.1791 0.4,-0.4 V 88.4 C 120,88.1791 119.821,88 119.6,88 H 116 V 84.4 C 116,84.1791 115.821,84 115.6,84 H 112 V 72.4 c 0,-0.2209 0.179,-0.4 0.4,-0.4 h 3.2 c 0.221,0 0.4,0.1791 0.4,0.4 v 7.2 c 0,0.2209 0.179,0.4 0.4,0.4 h 3.2 c 0.221,0 0.4,0.1791 0.4,0.4 v 3.2 c 0,0.2209 0.179,0.4 0.4,0.4 h 3.2 c 0.221,0 0.4,-0.1791 0.4,-0.4 v -7.2 c 0,-0.2209 -0.179,-0.4 -0.4,-0.4 h -3.2 c -0.221,0 -0.4,-0.1791 -0.4,-0.4 v -7.2 c 0,-0.2209 -0.179,-0.4 -0.4,-0.4 h -3.2 c -0.221,0 -0.4,-0.1791 -0.4,-0.4 v -3.2 c 0,-0.2209 0.179,-0.4 0.4,-0.4 h 7.2 c 0.221,0 0.4,0.1791 0.4,0.4 v 3.2 c 0,0.2209 0.179,0.4 0.4,0.4 h 7.2 c 0.221,0 0.4,0.1791 0.4,0.4 v 7.2 c 0,0.2209 -0.179,0.4 -0.4,0.4 h -3.2 c -0.221,0 -0.4,0.1791 -0.4,0.4 v 11.2 c 0,0.2209 -0.179,0.4 -0.4,0.4 h -3.2 c -0.221,0 -0.4,0.1791 -0.4,0.4 v 11.2 c 0,0.2209 0.179,0.4 0.4,0.4 h 7.2 c 0.221,0 0.4,0.179 0.4,0.4 v 3.2 c 0,0.221 -0.179,0.4 -0.4,0.4 h -3.2 c -0.221,0 -0.4,0.179 -0.4,0.4 v 3.2 c 0,0.221 0.179,0.4 0.4,0.4 h 3.2 c 0.221,0 0.4,0.179 0.4,0.4 v 3.2 c 0,0.221 -0.179,0.4 -0.4,0.4 H 124 v -7.6 c 0,-0.221 -0.179,-0.4 -0.4,-0.4 h -3.2 c -0.221,0 -0.4,0.179 -0.4,0.4 v 7.6 h -3.6 c -0.221,0 -0.4,0.179 -0.4,0.4 v 3.2 c 0,0.221 0.179,0.4 0.4,0.4 h 3.6 v 4 h -7.6 c -0.221,0 -0.4,0.179 -0.4,0.4 v 11.2 c 0,0.221 -0.179,0.4 -0.4,0.4 z m -28,0 h -3.2 c -0.2209,0 -0.4,-0.179 -0.4,-0.4 v -7.2 c 0,-0.221 0.1791,-0.4 0.4,-0.4 h 3.2 c 0.2209,0 0.4,0.179 0.4,0.4 v 7.2 c 0,0.221 -0.1791,0.4 -0.4,0.4 z m -8,0 H 72.4 C 72.1791,132 72,131.821 72,131.6 V 124 h 3.6 c 0.2209,0 0.4,0.179 0.4,0.4 v 7.2 c 0,0.221 -0.1791,0.4 -0.4,0.4 z m -8,0 H 64.4 C 64.1791,132 64,131.821 64,131.6 V 128 h 3.6 c 0.2209,0 0.4,0.179 0.4,0.4 v 3.2 c 0,0.221 -0.1791,0.4 -0.4,0.4 z m -8,0 H 48.4 c -0.2209,0 -0.4,-0.179 -0.4,-0.4 v -15.2 c 0,-0.221 0.1791,-0.4 0.4,-0.4 h 3.2 c 0.2209,0 0.4,-0.179 0.4,-0.4 v -7.2 c 0,-0.221 0.1791,-0.4 0.4,-0.4 h 3.2 c 0.2209,0 0.4,-0.179 0.4,-0.4 V 104 h 7.6 c 0.2209,0 0.4,-0.179 0.4,-0.4 v -3.2 C 64,100.179 63.8209,100 63.6,100 H 60.4 C 60.1791,100 60,99.8209 60,99.6 V 96.4 C 60,96.1791 60.1791,96 60.4,96 h 3.2 C 63.8209,96 64,95.8209 64,95.6 V 92.4 C 64,92.1791 63.8209,92 63.6,92 H 60.4 C 60.1791,92 60,91.8209 60,91.6 V 88.4 C 60,88.1791 60.1791,88 60.4,88 h 3.2 C 63.8209,88 64,87.8209 64,87.6 V 84 h 7.6 c 0.2209,0 0.4,0.1791 0.4,0.4 v 3.2 C 72,87.8209 71.8209,88 71.6,88 H 68.4 C 68.1791,88 68,88.1791 68,88.4 v 7.2 c 0,0.2209 0.1791,0.4 0.4,0.4 h 3.2 c 0.2209,0 0.4,0.1791 0.4,0.4 v 3.2 c 0,0.2209 0.1791,0.4 0.4,0.4 H 76 v 3.6 c 0,0.221 -0.1791,0.4 -0.4,0.4 h -3.2 c -0.2209,0 -0.4,0.179 -0.4,0.4 v 3.2 c 0,0.221 -0.1791,0.4 -0.4,0.4 H 60.4 c -0.2209,0 -0.4,0.179 -0.4,0.4 v 3.2 c 0,0.221 -0.1791,0.4 -0.4,0.4 h -3.2 c -0.2209,0 -0.4,0.179 -0.4,0.4 v 3.2 c 0,0.221 0.1791,0.4 0.4,0.4 h 7.2 c 0.2209,0 0.4,-0.179 0.4,-0.4 v -3.2 c 0,-0.221 0.1791,-0.4 0.4,-0.4 h 3.2 c 0.2209,0 0.4,0.179 0.4,0.4 v 7.6 h -3.6 c -0.2209,0 -0.4,0.179 -0.4,0.4 v 7.6 h -4 v -3.6 c 0,-0.221 -0.1791,-0.4 -0.4,-0.4 h -7.2 c -0.2209,0 -0.4,0.179 -0.4,0.4 v 3.2 c 0,0.221 0.1791,0.4 0.4,0.4 H 60 v 3.6 c 0,0.221 -0.1791,0.4 -0.4,0.4 z m -16,0 H 16.4 c -0.2209,0 -0.4,-0.179 -0.4,-0.4 v -27.2 c 0,-0.221 0.1791,-0.4 0.4,-0.4 h 27.2 c 0.2209,0 0.4,0.179 0.4,0.4 v 27.2 c 0,0.221 -0.1791,0.4 -0.4,0.4 z m 76,-4 h -3.2 c -0.221,0 -0.4,-0.179 -0.4,-0.4 v -3.2 c 0,-0.221 0.179,-0.4 0.4,-0.4 h 3.6 v 3.6 c 0,0.221 -0.179,0.4 -0.4,0.4 z M 96,127.6 V 124 h 3.6 c 0.2209,0 0.4,-0.179 0.4,-0.4 v -3.2 c 0,-0.221 -0.1791,-0.4 -0.4,-0.4 h -3.2 c -0.2209,0 -0.4,0.179 -0.4,0.4 v 3.6 h -3.6 c -0.2209,0 -0.4,0.179 -0.4,0.4 v 3.2 c 0,0.221 0.1791,0.4 0.4,0.4 h 3.2 c 0.2209,0 0.4,-0.179 0.4,-0.4 z m -56,0 V 108.4 C 40,108.179 39.8209,108 39.6,108 H 20.4 c -0.2209,0 -0.4,0.179 -0.4,0.4 v 19.2 c 0,0.221 0.1791,0.4 0.4,0.4 h 19.2 c 0.2209,0 0.4,-0.179 0.4,-0.4 z M 131.6,124 H 128 v -7.6 c 0,-0.221 0.179,-0.4 0.4,-0.4 h 3.2 c 0.221,0 0.4,0.179 0.4,0.4 v 7.2 c 0,0.221 -0.179,0.4 -0.4,0.4 z m -8,0 H 120 v -4 h 3.6 c 0.221,0 0.4,0.179 0.4,0.4 v 3.6 z m -52,0 H 68.4 C 68.1791,124 68,123.821 68,123.6 V 120 h 4 v 4 z m -36,0 H 24.4 c -0.2209,0 -0.4,-0.179 -0.4,-0.4 v -11.2 c 0,-0.221 0.1791,-0.4 0.4,-0.4 h 11.2 c 0.2209,0 0.4,0.179 0.4,0.4 v 11.2 c 0,0.221 -0.1791,0.4 -0.4,0.4 z m 48,-4 H 72 v -7.6 c 0,-0.221 0.1791,-0.4 0.4,-0.4 H 80 v 3.6 c 0,0.221 0.1791,0.4 0.4,0.4 H 84 v 3.6 c 0,0.221 -0.1791,0.4 -0.4,0.4 z m 40,-4 H 120 v -4 h 4 v 3.6 c 0,0.221 -0.179,0.4 -0.4,0.4 z m -36,0 H 84 v -4 h 4 v 3.6 c 0,0.221 -0.1791,0.4 -0.4,0.4 z m 24.4,-4.4 v -11.2 c 0,-0.221 -0.179,-0.4 -0.4,-0.4 h -11.2 c -0.221,0 -0.4,0.179 -0.4,0.4 v 11.2 c 0,0.221 0.179,0.4 0.4,0.4 h 11.2 c 0.221,0 0.4,-0.179 0.4,-0.4 z M 83.6,112 H 80 v -12 h 3.6 c 0.2209,0 0.4,-0.1791 0.4,-0.4 V 92 h 3.6 C 87.8209,92 88,91.8209 88,91.6 V 88.4 C 88,88.1791 88.1791,88 88.4,88 h 3.2 c 0.2209,0 0.4,0.1791 0.4,0.4 V 104 h -3.6 c -0.2209,0 -0.4,0.179 -0.4,0.4 v 3.6 h -3.6 c -0.2209,0 -0.4,0.179 -0.4,0.4 v 3.6 z m 24,-4 h -3.2 c -0.221,0 -0.4,-0.179 -0.4,-0.4 v -3.2 c 0,-0.221 0.179,-0.4 0.4,-0.4 h 3.2 c 0.221,0 0.4,0.179 0.4,0.4 v 3.2 c 0,0.221 -0.179,0.4 -0.4,0.4 z m -52,-4 H 48.4 C 48.1791,104 48,103.821 48,103.6 V 96 h 4 v 3.6 c 0,0.2209 0.1791,0.4 0.4,0.4 h 3.2 c 0.2209,0 0.4,0.179 0.4,0.4 v 3.6 z m 24,-4 H 76 V 96.4 C 76,96.1791 76.1791,96 76.4,96 h 3.2 c 0.2209,0 0.4,0.1791 0.4,0.4 v 3.6 z m -36,0 H 40.4 C 40.1791,100 40,99.8209 40,99.6 V 96 h 4 v 3.6 c 0,0.2209 -0.1791,0.4 -0.4,0.4 z m -8,0 H 20.4 C 20.1791,100 20,99.8209 20,99.6 V 96.4 C 20,96.1791 20.1791,96 20.4,96 h 3.2 C 23.8209,96 24,95.8209 24,95.6 V 92.4 C 24,92.1791 24.1791,92 24.4,92 h 3.2 c 0.2209,0 0.4,0.1791 0.4,0.4 v 3.2 c 0,0.2209 0.1791,0.4 0.4,0.4 h 3.2 C 31.8209,96 32,95.8209 32,95.6 V 92.4 C 32,92.1791 32.1791,92 32.4,92 h 3.2 C 35.8209,92 36,91.8209 36,91.6 V 88 h 7.6 c 0.2209,0 0.4,0.1791 0.4,0.4 V 92 H 40.4 C 40.1791,92 40,92.1791 40,92.4 V 96 H 36.4 C 36.1791,96 36,96.1791 36,96.4 v 3.2 c 0,0.2209 -0.1791,0.4 -0.4,0.4 z m 20,-4 H 52 V 92.4 C 52,92.1791 51.8209,92 51.6,92 H 48 V 88.4 C 48,88.1791 48.1791,88 48.4,88 h 7.2 c 0.2209,0 0.4,0.1791 0.4,0.4 v 7.2 c 0,0.2209 -0.1791,0.4 -0.4,0.4 z m -8,0 H 44 v -4 h 4 v 4 z m 52,-4 H 96.4 C 96.1791,92 96,91.8209 96,91.6 V 76 h 3.6 c 0.2209,0 0.4,-0.1791 0.4,-0.4 v -3.2 c 0,-0.2209 0.179,-0.4 0.4,-0.4 h 3.6 v 11.6 c 0,0.2209 -0.179,0.4 -0.4,0.4 h -3.2 c -0.221,0 -0.4,0.1791 -0.4,0.4 V 92 Z m -16,0 H 76.4 C 76.1791,92 76,91.8209 76,91.6 V 80.4 C 76,80.1791 76.1791,80 76.4,80 H 80 v 3.6 c 0,0.2209 0.1791,0.4 0.4,0.4 h 3.2 c 0.2209,0 0.4,0.1791 0.4,0.4 V 92 Z m -64,0 H 16.4 C 16.1791,92 16,91.8209 16,91.6 V 88.4 C 16,88.1791 16.1791,88 16.4,88 H 20 v 3.6 c 0,0.2209 -0.1791,0.4 -0.4,0.4 z m 16,-4 H 32.4 C 32.1791,88 32,87.8209 32,87.6 V 80.4 C 32,80.1791 31.8209,80 31.6,80 H 28 V 68 h 4 v 3.6 c 0,0.2209 0.1791,0.4 0.4,0.4 h 3.2 C 35.8209,72 36,71.8209 36,71.6 V 68.4 C 36,68.1791 35.8209,68 35.6,68 H 32 V 64.4 C 32,64.1791 31.8209,64 31.6,64 H 28.4 C 28.1791,64 28,64.1791 28,64.4 V 68 H 24.4 C 24.1791,68 24,68.1791 24,68.4 v 11.2 c 0,0.2209 0.1791,0.4 0.4,0.4 H 28 v 3.6 C 28,83.8209 27.8209,84 27.6,84 H 24.4 C 24.1791,84 24,84.1791 24,84.4 v 3.2 C 24,87.8209 23.8209,88 23.6,88 H 20 V 76.4 C 20,76.1791 19.8209,76 19.6,76 H 16.4 C 16.1791,76 16,75.8209 16,75.6 V 60.4 C 16,60.1791 16.1791,60 16.4,60 H 20 v 3.6 c 0,0.2209 0.1791,0.4 0.4,0.4 h 3.2 C 23.8209,64 24,63.8209 24,63.6 V 60.4 C 24,60.1791 23.8209,60 23.6,60 H 20 V 52.4 C 20,52.1791 19.8209,52 19.6,52 H 16.4 C 16.1791,52 16,51.8209 16,51.6 V 48.4 C 16,48.1791 16.1791,48 16.4,48 h 15.2 c 0.2209,0 0.4,0.1791 0.4,0.4 v 3.2 c 0,0.2209 0.1791,0.4 0.4,0.4 H 40 v 3.6 c 0,0.2209 0.1791,0.4 0.4,0.4 h 7.2 c 0.2209,0 0.4,0.1791 0.4,0.4 v 3.2 c 0,0.2209 0.1791,0.4 0.4,0.4 h 3.2 c 0.2209,0 0.4,0.1791 0.4,0.4 V 64 H 48.4 C 48.1791,64 48,64.1791 48,64.4 V 68 H 40.4 C 40.1791,68 40,68.1791 40,68.4 v 3.2 c 0,0.2209 0.1791,0.4 0.4,0.4 h 3.2 c 0.2209,0 0.4,0.1791 0.4,0.4 v 3.2 C 44,75.8209 43.8209,76 43.6,76 H 40.4 C 40.1791,76 40,76.1791 40,76.4 V 80 H 36.4 C 36.1791,80 36,80.1791 36,80.4 V 88 Z m 56,-4 H 88.4 C 88.1791,84 88,83.8209 88,83.6 V 76 h 4 v 7.6 c 0,0.2209 -0.1791,0.4 -0.4,0.4 z m -28,0 H 60.4 C 60.1791,84 60,83.8209 60,83.6 V 80 h 4 v 4 z m -8,0 H 48.4 C 48.1791,84 48,83.8209 48,83.6 V 80.4 C 48,80.1791 48.1791,80 48.4,80 H 56 v 3.6 c 0,0.2209 -0.1791,0.4 -0.4,0.4 z m -12,0 H 40.4 C 40.1791,84 40,83.8209 40,83.6 V 80 h 3.6 c 0.2209,0 0.4,0.1791 0.4,0.4 v 3.2 c 0,0.2209 -0.1791,0.4 -0.4,0.4 z m 40,-4 H 80 V 72.4 C 80,72.1791 79.8209,72 79.6,72 H 76 v -8 h 4 v 3.6 c 0,0.2209 0.1791,0.4 0.4,0.4 h 3.2 C 83.8209,68 84,67.8209 84,67.6 V 64 h 3.6 c 0.2209,0 0.4,0.1791 0.4,0.4 v 3.2 c 0,0.2209 0.1791,0.4 0.4,0.4 h 7.2 c 0.2209,0 0.4,0.1791 0.4,0.4 V 76 H 92 V 72.4 C 92,72.1791 91.8209,72 91.6,72 H 88.4 C 88.1791,72 88,72.1791 88,72.4 V 76 H 84.4 C 84.1791,76 84,76.1791 84,76.4 v 3.2 c 0,0.2209 -0.1791,0.4 -0.4,0.4 z m -12,0 H 64 v -8 h 4 v 3.6 c 0,0.2209 0.1791,0.4 0.4,0.4 H 72 v 3.6 c 0,0.2209 -0.1791,0.4 -0.4,0.4 z m -12,0 H 56 V 76.4 C 56,76.1791 56.1791,76 56.4,76 h 3.2 c 0.2209,0 0.4,0.1791 0.4,0.4 V 80 Z m 16,-4 H 72 v -4 h 4 v 3.6 c 0,0.2209 -0.1791,0.4 -0.4,0.4 z m -24,0 H 48.4 C 48.1791,76 48,75.8209 48,75.6 V 68 h 3.6 C 51.8209,68 52,67.8209 52,67.6 V 64 h 3.6 c 0.2209,0 0.4,0.1791 0.4,0.4 v 3.2 c 0,0.2209 0.1791,0.4 0.4,0.4 h 3.2 C 59.8209,68 60,67.8209 60,67.6 V 60.4 C 60,60.1791 60.1791,60 60.4,60 H 71.6 C 71.8209,60 72,59.8209 72,59.6 V 56.4 C 72,56.1791 72.1791,56 72.4,56 h 3.2 c 0.2209,0 0.4,0.1791 0.4,0.4 V 64 H 64.4 C 64.1791,64 64,64.1791 64,64.4 V 72 H 52.4 C 52.1791,72 52,72.1791 52,72.4 v 3.2 c 0,0.2209 -0.1791,0.4 -0.4,0.4 z m 56,-4 H 104 v -3.6 c 0,-0.2209 0.179,-0.4 0.4,-0.4 h 3.6 v 3.6 c 0,0.2209 -0.179,0.4 -0.4,0.4 z m -36,0 H 68 V 68.4 C 68,68.1791 68.1791,68 68.4,68 h 3.2 c 0.2209,0 0.4,0.1791 0.4,0.4 V 72 Z m 40,-4 H 108 v -3.6 c 0,-0.2209 -0.179,-0.4 -0.4,-0.4 h -7.2 C 100.179,64 100,63.8209 100,63.6 V 56.4 C 100,56.1791 99.8209,56 99.6,56 H 92.4 C 92.1791,56 92,56.1791 92,56.4 V 60 H 88.4 C 88.1791,60 88,59.8209 88,59.6 V 56.4 C 88,56.1791 87.8209,56 87.6,56 H 84.4 C 84.1791,56 84,56.1791 84,56.4 V 64 H 80 V 52.4 C 80,52.1791 80.1791,52 80.4,52 h 3.2 C 83.8209,52 84,51.8209 84,51.6 V 44 h 4 v 7.6 c 0,0.2209 0.1791,0.4 0.4,0.4 h 3.2 C 91.8209,52 92,51.8209 92,51.6 V 44 h 4 v 3.6 c 0,0.2209 0.1791,0.4 0.4,0.4 h 7.2 c 0.221,0 0.4,0.1791 0.4,0.4 v 3.2 c 0,0.2209 0.179,0.4 0.4,0.4 h 7.2 c 0.221,0 0.4,-0.1791 0.4,-0.4 v -3.2 c 0,-0.2209 0.179,-0.4 0.4,-0.4 h 11.2 c 0.221,0 0.4,0.1791 0.4,0.4 v 3.2 c 0,0.2209 -0.179,0.4 -0.4,0.4 h -7.2 c -0.221,0 -0.4,0.1791 -0.4,0.4 v 3.2 c 0,0.2209 -0.179,0.4 -0.4,0.4 h -3.2 c -0.221,0 -0.4,0.1791 -0.4,0.4 v 11.2 c 0,0.2209 -0.179,0.4 -0.4,0.4 z m 20,-4 h -3.2 C 128.179,64 128,63.8209 128,63.6 V 60 h 3.6 c 0.221,0 0.4,0.1791 0.4,0.4 v 3.2 c 0,0.2209 -0.179,0.4 -0.4,0.4 z m -36,0 H 92.4 C 92.1791,64 92,63.8209 92,63.6 V 60 h 3.6 c 0.2209,0 0.4,0.1791 0.4,0.4 v 3.2 C 96,63.8209 95.8209,64 95.6,64 Z M 44,63.6 V 60.4 C 44,60.1791 43.8209,60 43.6,60 H 40.4 C 40.1791,60 40,60.1791 40,60.4 v 3.2 c 0,0.2209 0.1791,0.4 0.4,0.4 h 3.2 C 43.8209,64 44,63.8209 44,63.6 Z M 127.6,60 h -7.2 c -0.221,0 -0.4,-0.1791 -0.4,-0.4 v -3.2 c 0,-0.2209 0.179,-0.4 0.4,-0.4 h 7.6 v 4 z M 108,59.6 v -3.2 c 0,-0.2209 -0.179,-0.4 -0.4,-0.4 h -3.2 c -0.221,0 -0.4,0.1791 -0.4,0.4 v 3.2 c 0,0.2209 0.179,0.4 0.4,0.4 h 3.2 c 0.221,0 0.4,-0.1791 0.4,-0.4 z m -72,0 V 56.4 C 36,56.1791 35.8209,56 35.6,56 H 28 V 52.4 C 28,52.1791 27.8209,52 27.6,52 H 24.4 C 24.1791,52 24,52.1791 24,52.4 v 3.2 c 0,0.2209 0.1791,0.4 0.4,0.4 H 28 v 3.6 c 0,0.2209 0.1791,0.4 0.4,0.4 h 7.2 C 35.8209,60 36,59.8209 36,59.6 Z M 131.6,56 H 128 v -7.6 c 0,-0.2209 0.179,-0.4 0.4,-0.4 h 3.2 c 0.221,0 0.4,0.1791 0.4,0.4 v 7.2 c 0,0.2209 -0.179,0.4 -0.4,0.4 z m -76,0 H 52.4 C 52.1791,56 52,55.8209 52,55.6 V 52 h 3.6 c 0.2209,0 0.4,0.1791 0.4,0.4 v 3.2 c 0,0.2209 -0.1791,0.4 -0.4,0.4 z m 20,-4 H 68.4 C 68.1791,52 68,51.8209 68,51.6 V 44 h 3.6 C 71.8209,44 72,43.8209 72,43.6 V 36.4 C 72,36.1791 71.8209,36 71.6,36 H 68 V 32.4 C 68,32.1791 68.1791,32 68.4,32 h 7.2 C 75.8209,32 76,31.8209 76,31.6 V 28 h 3.6 C 79.8209,28 80,27.8209 80,27.6 V 24.4 C 80,24.1791 80.1791,24 80.4,24 H 84 v 3.6 c 0,0.2209 0.1791,0.4 0.4,0.4 H 88 v 3.6 c 0,0.2209 0.1791,0.4 0.4,0.4 h 3.2 C 91.8209,32 92,31.8209 92,31.6 V 28 h 4 v 3.6 c 0,0.2209 0.1791,0.4 0.4,0.4 h 3.2 c 0.2209,0 0.4,0.1791 0.4,0.4 v 11.2 c 0,0.2209 -0.1791,0.4 -0.4,0.4 H 96 V 40.4 C 96,40.1791 95.8209,40 95.6,40 H 92 V 36.4 C 92,36.1791 91.8209,36 91.6,36 H 84.4 C 84.1791,36 84,36.1791 84,36.4 V 44 H 80.4 C 80.1791,44 80,43.8209 80,43.6 V 36.4 C 80,36.1791 79.8209,36 79.6,36 H 76.4 C 76.1791,36 76,36.1791 76,36.4 v 15.2 c 0,0.2209 -0.1791,0.4 -0.4,0.4 z m -24,0 H 48.4 C 48.1791,52 48,51.8209 48,51.6 V 48.4 C 48,48.1791 48.1791,48 48.4,48 H 52 v 4 z m -8,0 H 40 V 48.4 C 40,48.1791 40.1791,48 40.4,48 h 3.2 c 0.2209,0 0.4,0.1791 0.4,0.4 v 3.2 c 0,0.2209 -0.1791,0.4 -0.4,0.4 z m 20,-4 H 60.4 C 60.1791,48 60,47.8209 60,47.6 V 44 h 4 v 3.6 c 0,0.2209 -0.1791,0.4 -0.4,0.4 z m -8,0 H 52 v -4 h 4 v 3.6 c 0,0.2209 -0.1791,0.4 -0.4,0.4 z m 76,-4 H 104.4 C 104.179,44 104,43.8209 104,43.6 V 16.4 c 0,-0.2209 0.179,-0.4 0.4,-0.4 h 27.2 c 0.221,0 0.4,0.1791 0.4,0.4 v 27.2 c 0,0.2209 -0.179,0.4 -0.4,0.4 z m -40,0 H 88 V 40.4 C 88,40.1791 88.1791,40 88.4,40 H 92 v 4 z m -24,0 H 64 v -8 h 4 v 8 z m -8,0 H 56 v -4 h 3.6 c 0.2209,0 0.4,0.1791 0.4,0.4 V 44 Z m -8,0 H 48.4 C 48.1791,44 48,43.8209 48,43.6 V 40.4 C 48,40.1791 48.1791,40 48.4,40 H 52 v 4 z m -8,0 H 16.4 C 16.1791,44 16,43.8209 16,43.6 V 16.4 C 16,16.1791 16.1791,16 16.4,16 h 27.2 c 0.2209,0 0.4,0.1791 0.4,0.4 V 43.6 C 44,43.8209 43.8209,44 43.6,44 Z M 128,39.6 V 20.4 c 0,-0.2209 -0.179,-0.4 -0.4,-0.4 h -19.2 c -0.221,0 -0.4,0.1791 -0.4,0.4 v 19.2 c 0,0.2209 0.179,0.4 0.4,0.4 h 19.2 c 0.221,0 0.4,-0.1791 0.4,-0.4 z M 55.6,40 H 52 V 36.4 C 52,36.1791 51.8209,36 51.6,36 H 48.4 C 48.1791,36 48,35.8209 48,35.6 V 24.4 C 48,24.1791 48.1791,24 48.4,24 h 3.2 c 0.2209,0 0.4,0.1791 0.4,0.4 v 3.2 c 0,0.2209 0.1791,0.4 0.4,0.4 h 3.2 c 0.2209,0 0.4,0.1791 0.4,0.4 v 3.2 c 0,0.2209 0.1791,0.4 0.4,0.4 h 3.2 C 59.8209,32 60,31.8209 60,31.6 V 24.4 C 60,24.1791 60.1791,24 60.4,24 h 7.2 C 67.8209,24 68,23.8209 68,23.6 V 16.4 C 68,16.1791 68.1791,16 68.4,16 h 3.2 c 0.2209,0 0.4,0.1791 0.4,0.4 v 7.2 c 0,0.2209 0.1791,0.4 0.4,0.4 h 3.2 c 0.2209,0 0.4,0.1791 0.4,0.4 V 28 H 64.4 C 64.1791,28 64,28.1791 64,28.4 V 36 H 56.4 C 56.1791,36 56,36.1791 56,36.4 V 40 Z M 40,39.6 V 20.4 C 40,20.1791 39.8209,20 39.6,20 H 20.4 C 20.1791,20 20,20.1791 20,20.4 v 19.2 c 0,0.2209 0.1791,0.4 0.4,0.4 H 39.6 C 39.8209,40 40,39.8209 40,39.6 Z M 123.6,36 H 112.4 C 112.179,36 112,35.8209 112,35.6 V 24.4 c 0,-0.2209 0.179,-0.4 0.4,-0.4 h 11.2 c 0.221,0 0.4,0.1791 0.4,0.4 v 11.2 c 0,0.2209 -0.179,0.4 -0.4,0.4 z m -88,0 H 24.4 C 24.1791,36 24,35.8209 24,35.6 V 24.4 C 24,24.1791 24.1791,24 24.4,24 h 11.2 c 0.2209,0 0.4,0.1791 0.4,0.4 v 11.2 c 0,0.2209 -0.1791,0.4 -0.4,0.4 z m 64,-8 H 96 V 20.4 C 96,20.1791 95.8209,20 95.6,20 H 92 V 16.4 C 92,16.1791 92.1791,16 92.4,16 h 7.2 c 0.2209,0 0.4,0.1791 0.4,0.4 v 11.2 c 0,0.2209 -0.1791,0.4 -0.4,0.4 z m -8,0 H 88 V 24.4 C 88,24.1791 87.8209,24 87.6,24 H 84 V 20.4 C 84,20.1791 84.1791,20 84.4,20 H 92 v 8 z m -36,-8 H 48.4 C 48.1791,20 48,19.8209 48,19.6 V 16.4 C 48,16.1791 48.1791,16 48.4,16 h 7.2 c 0.2209,0 0.4,0.1791 0.4,0.4 v 3.2 c 0,0.2209 -0.1791,0.4 -0.4,0.4 z"
           id="path1" />
      </g>
    </g>
  </g>
</svg>
